<?xml version="1.0" encoding="UTF-8" standalone="no"?>
<svg
   xmlns:dc="http://purl.org/dc/elements/1.1/"
   xmlns:cc="http://creativecommons.org/ns#"
   xmlns:rdf="http://www.w3.org/1999/02/22-rdf-syntax-ns#"
   xmlns:svg="http://www.w3.org/2000/svg"
   xmlns="http://www.w3.org/2000/svg"
   viewBox="0 0 1007.48 331.81332"
   height="331.81332"
   width="1007.48"
   xml:space="preserve"
   id="svg2"
   version="1.1"><metadata
     id="metadata8"><rdf:RDF><cc:Work
         rdf:about=""><dc:format>image/svg+xml</dc:format><dc:type
           rdf:resource="http://purl.org/dc/dcmitype/StillImage" /></cc:Work></rdf:RDF></metadata><defs
     id="defs6"><clipPath
       id="clipPath20"
       clipPathUnits="userSpaceOnUse"><path
         id="path18"
         d="M 0,0 H 7556 V 2488.62 H 0 Z" /></clipPath></defs><g
     transform="matrix(1.3333333,0,0,-1.3333333,0,331.81333)"
     id="g10"><g
       transform="scale(0.1)"
       id="g12"><g
         id="g14"><g
           clip-path="url(#clipPath20)"
           id="g16"><path
             id="path22"
             style="fill:#ffffff;fill-opacity:1;fill-rule:evenodd;stroke:none"
             d="m 6098.74,344.84 c -750.39,749.48 -720.42,1521.46 -697.94,1529.05 371.71,123.9 375.2,389.92 375.2,389.92 h 647.9 c 0,0 3.65,-266.02 375.31,-389.92 22.42,-7.59 52.44,-779.57 -697.94,-1529.05 z m 0,-344.84 c -1140.76,1064.42 -945.63,2046.48 -930.56,2046.48 430.06,0 420.22,442.14 420.22,442.14 h 1029.56 c 0,0 -9.95,-442.14 420.23,-442.14 14.95,0 210.08,-982.06 -930.63,-2046.48 h -8.82" /><path
             id="path24"
             style="fill:#ffffff;fill-opacity:1;fill-rule:nonzero;stroke:none"
             d="M 1464.31,897.68 C 1405.64,441.422 1170.29,215.992 683.344,215.992 182.555,215.992 14.8633,485.77 1.25391,736.219 -3.91406,830.891 7.01563,986.832 31.6172,1097.98 H 579.758 C 572.508,1025.63 543.246,900.539 547.18,828.082 551.793,741.789 601.996,689 685.449,689 c 108.641,0 144.168,61.219 158.11,161.34 l 221.781,1399.64 h 612.01 L 1464.31,897.68" /><path
             id="path26"
             style="fill:#ffffff;fill-opacity:1;fill-rule:nonzero;stroke:none"
             d="M 3635.25,1017.42 C 3610.06,814.25 3486.72,215.992 2660.5,215.992 c -576,0 -874.41,372.828 -903.27,904.308 -35,642.67 336.6,1176.96 1012.67,1176.96 442.37,0 847.98,-192.15 891.55,-787.49 h -578.87 c -4.45,186.41 -99.28,292.11 -288.45,292.11 -339.44,0 -440.63,-389.42 -425.46,-670.51 8.89,-164.1 61.84,-420.222 342.82,-420.222 191.98,0 293.39,130.872 322.85,306.272 h 600.91" /><path
             id="path28"
             style="fill:#ffffff;fill-opacity:1;fill-rule:nonzero;stroke:none"
             d="m 4103.59,2249.98 h 612.09 L 4411.89,263.211 H 3799.8 l 303.79,1986.769" /><path
             id="path30"
             style="fill:#ffffff;fill-opacity:1;fill-rule:evenodd;stroke:none"
             d="m 6165.41,2008.41 c -4.33,-10.34 7.99,-14.84 19.34,-12.02 6.24,19.67 -12.82,24.34 -26.59,13.71 1.46,-0.78 3.54,-2.58 4.83,-4.16" /><path
             id="path32"
             style="fill:#ffffff;fill-opacity:1;fill-rule:evenodd;stroke:none"
             d="m 6467.45,1213.75 -56.52,56.51 c 10.25,11.02 19.97,22.54 29,34.61 8.31,0.67 11.6,8.2 24.56,19.83 15.57,13.72 15.8,14.39 38.79,14.96 2.74,18.99 -8.36,26.26 -23.76,29.59 25.75,51.62 41.24,109.23 43.77,170.2 h 80 c -4.39,-125.94 -55.19,-239.99 -135.84,-325.7 z m -866.4,325.7 h 79.83 c 4.32,-103.93 46.29,-198.12 112.66,-269.37 l -56.51,-56.52 c -80.76,85.73 -131.59,199.86 -135.98,325.89 z m 134.47,359.95 56.51,-56.51 c -66.11,-71.73 -107.6,-166.42 -111.23,-270.78 h -79.82 c 3.69,126.4 54.04,241.04 134.54,327.29 z m 687.38,-327.29 c -2.36,51.8 -17.01,100.34 -41.04,142.87 7.76,-3.02 16.15,-4.35 25.46,-2.94 -21.03,21.9 -43.24,40.32 -61.83,63.76 l 25.98,25.98 c 4.36,0.3 8.54,0.65 11.95,0.65 6.77,0 12.33,-0.19 17.19,-0.62 51.68,-63.02 83.75,-142.69 87.06,-229.7 z M 6118.53,1136 c 103.74,3.95 197.84,45.34 269.19,111.11 l 56.5,-56.51 c -85.91,-80.15 -199.95,-130.4 -325.69,-134.43 z m -301.83,111.01 c 71.41,-65.71 165.53,-107.06 269.22,-111.01 v -79.83 c -125.81,4.02 -239.85,54.23 -325.74,134.32 z m -35.13,292.44 c 2.19,-40.07 11.77,-78.16 27.34,-113.01 -12.54,-12.44 -26.01,-24.07 -32.97,-35.01 33.26,-26.75 42.97,-53.78 86.79,-52.14 l -43.93,-43.95 c -59.92,64.73 -97.9,150 -102.17,244.11 z m 81.61,232.28 c -47.96,-53.4 -78.25,-122.97 -81.75,-199.62 h -64.87 c 3.59,94.46 41.07,180.25 100.75,245.5 z m 222.74,206.81 c -104.48,-3.97 -199.23,-45.94 -270.83,-112.53 l -56.52,56.51 c 86.07,81.03 200.75,131.92 327.35,135.97 z m 303.36,-112.58 c -5.54,5.16 -11.19,10.19 -17,15.05 -14.13,30.7 -30.88,76.5 -45.01,70.97 3.64,-10.69 -0.18,-22.83 2.41,-34.3 0.44,-2.2 1.25,-4.47 2,-6.74 -61.77,40.19 -134.69,64.61 -213.15,67.6 v 79.94 c 126.51,-4.05 241.16,-54.96 327.25,-136.01 z m -16.49,-293.85 c -15.74,25.35 -40.19,39.61 -57.95,66.73 -14,21.37 -26.18,44.53 -40.44,65.87 l 39.62,39.62 c 40.97,-46.39 67,-106.3 70.42,-172.22 z m -35.95,-172.42 c -7.33,5.38 -14.34,10.99 -19.69,18.11 -8.04,10.75 -11.72,25.05 -15.55,39.46 9.92,19.72 17,41.1 20.7,63.62 7.77,6.61 15.77,12.88 24.05,18.57 h 37.87 c -3.21,-51.52 -20.19,-99.34 -47.38,-139.76 z m -218.31,-163.12 c 54.22,2.72 104.89,18.92 148.77,45.28 12.38,-2.45 26.87,0.84 42.09,-1.11 14.66,-2.02 27.72,-11.45 40.73,-19.05 -63.18,-53.03 -143.57,-86.16 -231.59,-89.82 z m -230.67,81.6 c 53.07,-47.59 122.06,-77.8 198.06,-81.6 v -64.7 c -93.87,3.89 -179.07,41.2 -243.96,100.41 z m -7.93,221.28 c 0.92,-11.62 2.72,-22.99 5.35,-34.05 -8.96,2.35 -18.7,4.06 -26.55,5.99 -2.09,-14.6 -15.76,-11.83 -26.24,-20.85 5.01,-9.21 5.38,-18.03 2.95,-26.51 -8.34,23.85 -13.57,49.15 -15.2,75.42 z m 52.85,162.67 c -30.37,-35.46 -49.8,-80.52 -53.07,-130.01 h -59.69 c 3.42,65.96 29.47,125.89 70.48,172.3 z m 153.14,175.8 c -76.79,-3.83 -146.45,-34.57 -199.74,-83 l -45.82,45.81 c 65.09,60.13 150.9,98.13 245.56,102.06 z m 160.9,-138.67 c -15.13,15.24 -29.24,19.21 -41.7,15.79 -26.24,13.69 -55.53,22.28 -86.59,24.53 v 59.92 c 66.13,-3.77 126.17,-30.28 172.44,-71.86 l -36.61,-36.62 c -2.46,2.8 -4.91,5.6 -7.54,8.24 z m -128.29,-424.01 c 19.82,-26.04 57.17,-24.85 91.83,-19.18 -28.55,-11.85 -59.46,-19.16 -91.83,-21 z m -180.43,53.17 c 12.87,1.67 26.34,-1.39 40.16,3.4 31.22,-20.93 68.02,-34.13 107.66,-37 v -59.75 c -65.34,3.72 -124.71,29.69 -170.75,70.42 z m 124.75,171.04 -108.29,-108.32 c -25.37,29.73 -41.93,67.15 -45.67,108.32 z m -79.19,111.78 c -0.98,-0.96 -2.07,-1.87 -2.92,-2.88 -18.89,-22.89 -3.66,-32.11 9.95,-52.01 2.01,14.21 2.32,29.58 2.69,45.17 l 22.38,-22.38 c -5.76,-18.8 7.83,-34.39 26.36,-47.02 h -133.37 c 3.16,41.56 19.23,79.48 44.42,109.62 z m 102.26,128.34 c -49.63,-3.59 -94.77,-23.43 -130.13,-54.24 l -42.31,42.3 c 46.27,41.58 106.31,68.09 172.44,71.86 z m 78.93,-72.14 c -6.58,-17.32 -16.19,-35.76 -18.94,-54.42 -1.77,-11.75 -0.01,-19.39 3.71,-26.77 l -31.09,-31.1 v 143.58 c 1.98,4.05 3.92,7.89 5.8,11.44 19.42,-2.21 37.95,-7.25 55.2,-14.75 -5.78,-7.88 -10.74,-17.46 -14.68,-27.98 z m -23.05,-135.32 10.76,10.76 c -0.05,-3.44 0.47,-7.06 1.29,-10.76 z m 7.18,-39.94 -7.29,7.28 h 14.98 c -4.1,-1.39 -6.43,-3.97 -7.69,-7.28 z m -105.95,138.26 c 28.65,-5.2 30.66,-21.19 42.89,-1.15 v -49.48 c -2.35,3.6 -4.71,7.16 -6.97,10.67 -17.35,26.99 -24,18.55 -35.97,7.69 l -29.8,29.79 c 10.25,3.06 20.9,4.14 29.85,2.48 z m -66.82,34.48 c 9.97,8.53 20.76,16.11 32.33,22.49 -6.9,-12.97 -10.56,-27.33 -12.52,-42.29 z m 171.44,-237.98 c 1.55,8.07 3.43,12.51 5.59,14.7 l 17.75,-17.76 c -2.42,-2.67 -4.38,-5.46 -5.58,-9.42 l 1.09,0.23 c 3.87,1.83 7.66,2.79 11.17,2.36 l -11.17,-2.36 c -15.31,-7.24 -32.11,-28.85 -39.65,-39.3 -2.88,-3.94 -5.7,-8.69 -8.32,-13.82 v 114.78 l 21.86,-21.86 c -4.43,-9.99 -3.76,-23.62 7.26,-27.55 z m -169.91,-58.87 108.18,108.17 v -152.59 c -41,3.42 -78.38,19.48 -108.18,44.42 z m 356.11,457.78 c 0.54,-11.97 0.55,-23.95 3.14,-36.42 1.4,-7.25 -0.09,-11.44 0.59,-15.18 l -12.9,-12.9 c -7.24,8.18 -14.93,15.86 -23.48,22.36 -11.94,4.26 -26.36,14.59 -29.32,6.13 -44.92,28.01 -97.22,45.28 -153.35,48.09 v 64.87 c 80.62,-3.36 154.86,-31.45 215.32,-76.95 z m 86.6,-487.84 c -12.78,-15.95 -21.34,-39.43 -12.34,-55.77 -4.79,-6.23 -9.78,-12.28 -14.93,-18.2 -5.31,25.14 -16.02,52.12 -21.9,62.95 -1.48,2.75 -3.2,5.26 -5.05,7.64 32.78,47.29 53.2,103.77 56.54,164.83 h 64.82 c -2.72,-59.94 -19.07,-116.32 -46.1,-166.08 -8.01,0.83 -15.41,2.07 -21.04,4.63 z m 182.91,194.11 h -80 c -2.58,74.5 -24.36,144.12 -60.71,203.93 16.78,-5.1 37.51,-6.39 38.1,11.44 -22.89,9.2 -48.44,21.38 -71.57,35.89 -5.39,6.62 -10.98,13.08 -16.76,19.36 l 56.51,56.5 c 80.41,-86.23 130.74,-200.8 134.43,-327.12 z m -501.13,527.94 c -299.7,0 -542.89,-243.03 -542.89,-542.83 0,-299.64 243.19,-542.72 542.89,-542.72 299.69,0 542.72,243.08 542.72,542.72 0,299.8 -243.03,542.83 -542.72,542.83" /><path
             id="path34"
             style="fill:#ffffff;fill-opacity:1;fill-rule:evenodd;stroke:none"
             d="m 6300.28,1824.47 c 0.32,-0.24 0.6,-0.53 0.92,-0.77 2.21,-0.8 4.33,-1.38 6.27,-1.59 l -7.19,2.36" /><path
             id="path36"
             style="fill:#ffffff;fill-opacity:1;fill-rule:evenodd;stroke:none"
             d="m 6415.35,1381.03 c 1.47,-1.19 3.2,-2.17 5.1,-3.03 1.53,1.92 3.11,3.77 4.74,5.45 l -9.84,-2.42" /><path
             id="path38"
             style="fill:#ffffff;fill-opacity:1;fill-rule:evenodd;stroke:none"
             d="m 5851.78,1513.36 c 2.03,-0.7 4.42,-1.34 6.95,-1.97 0.1,0.69 0.31,1.21 0.35,1.97 h -7.3" /><path
             id="path40"
             style="fill:#ffffff;fill-opacity:1;fill-rule:nonzero;stroke:none"
             d="m 7305.95,522.82 h 50.76 l 74.6,-220.48 74.32,220.48 h 50.43 V 262.082 h -33.96 v 153.816 c 0,5.34 0.23,14.161 0.68,26.532 0.39,12.25 0.62,25.468 0.62,39.582 l -74.88,-219.93 h -34.86 l -74.99,219.93 v -7.992 c 0,-6.411 0.22,-16.129 0.61,-29.231 0.45,-13.039 0.62,-22.707 0.62,-28.891 V 262.082 h -33.95 V 522.82" /><path
             id="path42"
             style="fill:#ffffff;fill-opacity:1;fill-rule:nonzero;stroke:none"
             d="m 7113.91,482.898 h -77.3 v 27.891 h 188.1 v -27.891 h -77.63 V 256.691 h -33.17 v 226.207" /></g></g></g></g></svg>