<?xml version="1.0" encoding="UTF-8"?>
<svg width="292px" height="81px" viewBox="0 0 292 81" version="1.1" xmlns="http://www.w3.org/2000/svg" xmlns:xlink="http://www.w3.org/1999/xlink">
    <!-- Generator: Sketch 55.2 (78181) - https://sketchapp.com -->
    <title>Group</title>
    <desc>Created with Sketch.</desc>
    <defs>
        <polygon id="path-1" points="0.06 0.234 84.88 0.234 84.88 76.908 0.06 76.908"></polygon>
        <polygon id="path-3" points="0.06 0.234 84.88 0.234 84.88 76.908 0.06 76.908"></polygon>
    </defs>
    <g id="Page-1" stroke="none" stroke-width="1" fill="none" fill-rule="evenodd">
        <g id="Group">
            <path d="M57.729,76.908 L57.729,67.312 C66.396,71.186 73.651,73.12 79.497,73.12 C82.558,73.12 85.34,72.615 87.847,71.606 C90.391,70.595 92.398,68.912 93.87,66.555 C95.38,64.164 96.135,59.08 96.137,51.3 L96.137,9.196 L75.322,9.196 L75.322,0.234 L108.496,0.234 L108.496,51.553 C108.496,59.904 107.051,65.915 104.784,69.584 C102.558,73.256 99.417,76.084 95.361,78.07 C91.306,80.023 86.117,80.998 79.795,81 C72.717,81 65.363,79.636 57.729,76.908" id="Fill-1" fill="#FFFFFE" fill-rule="nonzero"></path>
            <g id="Group-5">
                <g id="Fill-2-Clipped">
                    <mask id="mask-2" fill="white">
                        <use xlink:href="#path-1"></use>
                    </mask>
                    <g id="path-1"></g>
                    <polyline id="Fill-2" fill="#FFFFFE" fill-rule="nonzero" mask="url(#mask-2)" points="24.774 18.108 34.33 18.108 41.67 45.645 50.776 18.108 58.844 18.108 68.054 45.645 75.324 18.108 84.88 18.108 73.42 61.245 64.106 61.245 54.724 33.357 45.514 61.245 36.304 61.245 24.774 18.108"></polyline>
                </g>
                <g id="Fill-4-Clipped">
                    <mask id="mask-4" fill="white">
                        <use xlink:href="#path-3"></use>
                    </mask>
                    <g id="path-1"></g>
                    <polyline id="Fill-4" fill="#FFFFFE" fill-rule="nonzero" mask="url(#mask-4)" points="0 0.234 33.773 0.234 33.773 9.194 12.338 9.196 12.338 67.305 33.771 67.305 33.771 76.908 0.001 76.908 0 0.234"></polyline>
                </g>
            </g>
            <polyline id="Fill-6" fill="#FFFFFE" fill-rule="nonzero" points="131.292 10.449 129.155 10.449 127.497 3.79 127.47 3.79 125.839 10.449 123.66 10.449 121.07 0.665 123.222 0.665 124.771 7.325 124.798 7.325 126.496 0.665 128.511 0.665 130.183 7.407 130.21 7.407 131.813 0.665 133.923 0.665 131.292 10.449"></polyline>
            <polygon id="Fill-7" fill="#FFFFFE" fill-rule="nonzero" points="134.825 10.449 136.977 10.449 136.977 0.665 134.825 0.665"></polygon>
            <path d="M140.99,5.091 L143.346,5.091 C144.306,5.091 144.827,4.68 144.827,3.693 C144.827,2.748 144.306,2.337 143.346,2.337 L140.99,2.337 L140.99,5.091 Z M138.839,0.665 L144.114,0.665 C145.868,0.665 146.978,1.885 146.978,3.365 C146.978,4.516 146.512,5.379 145.429,5.817 L145.429,5.845 C146.485,6.119 146.786,7.146 146.854,8.133 C146.896,8.75 146.881,9.901 147.265,10.449 L145.114,10.449 C144.854,9.832 144.881,8.887 144.772,8.105 C144.621,7.078 144.223,6.626 143.141,6.626 L140.99,6.626 L140.99,10.449 L138.839,10.449 L138.839,0.665 L138.839,0.665 Z" id="Fill-8" fill="#FFFFFE" fill-rule="nonzero"></path>
            <polyline id="Fill-9" fill="#FFFFFE" fill-rule="nonzero" points="150.649 2.474 147.716 2.474 147.716 0.665 155.733 0.665 155.733 2.474 152.8 2.474 152.8 10.449 150.649 10.449 150.649 2.474"></polyline>
            <path d="M158.239,7.201 C158.239,8.503 159.252,9.01 160.403,9.01 C161.157,9.01 162.308,8.791 162.308,7.791 C162.308,6.735 160.841,6.557 159.403,6.173 C157.951,5.79 156.485,5.228 156.485,3.392 C156.485,1.392 158.375,0.432 160.143,0.432 C162.184,0.432 164.062,1.323 164.062,3.584 L161.979,3.584 C161.911,2.405 161.075,2.104 160.047,2.104 C159.362,2.104 158.567,2.392 158.567,3.214 C158.567,3.967 159.033,4.063 161.486,4.694 C162.199,4.872 164.391,5.324 164.391,7.544 C164.391,9.339 162.979,10.682 160.321,10.682 C158.156,10.682 156.128,9.613 156.156,7.201 L158.239,7.201" id="Fill-10" fill="#FFFFFE" fill-rule="nonzero"></path>
            <path d="M172.322,3.954 C172.185,2.981 171.253,2.241 170.184,2.241 C168.252,2.241 167.526,3.885 167.526,5.598 C167.526,7.229 168.252,8.873 170.184,8.873 C171.5,8.873 172.24,7.969 172.404,6.681 L174.487,6.681 C174.267,9.12 172.583,10.682 170.184,10.682 C167.156,10.682 165.375,8.421 165.375,5.598 C165.375,2.693 167.156,0.432 170.184,0.432 C172.335,0.432 174.144,1.693 174.405,3.954 L172.322,3.954" id="Fill-11" fill="#FFFFFE" fill-rule="nonzero"></path>
            <polyline id="Fill-12" fill="#FFFFFE" fill-rule="nonzero" points="176.224 0.665 178.375 0.665 178.375 4.419 182.335 4.419 182.335 0.665 184.487 0.665 184.487 10.449 182.335 10.449 182.335 6.229 178.375 6.229 178.375 10.449 176.224 10.449 176.224 0.665"></polyline>
            <path d="M188.76,6.667 L191.295,6.667 L190.062,3.077 L190.035,3.077 L188.76,6.667 Z M188.965,0.665 L191.171,0.665 L194.831,10.449 L192.597,10.449 L191.857,8.27 L188.198,8.27 L187.431,10.449 L185.252,10.449 L188.965,0.665 L188.965,0.665 Z" id="Fill-13" fill="#FFFFFE" fill-rule="nonzero"></path>
            <polyline id="Fill-14" fill="#FFFFFE" fill-rule="nonzero" points="195.596 0.665 202.475 0.665 202.475 2.474 197.748 2.474 197.748 4.735 201.844 4.735 201.844 6.407 197.748 6.407 197.748 10.449 195.596 10.449 195.596 0.665"></polyline>
            <polyline id="Fill-15" fill="#FFFFFE" fill-rule="nonzero" points="206.571 2.474 203.638 2.474 203.638 0.665 211.655 0.665 211.655 2.474 208.722 2.474 208.722 10.449 206.571 10.449 206.571 2.474"></polyline>
            <path d="M214.297,7.201 C214.297,8.503 215.311,9.01 216.461,9.01 C217.215,9.01 218.367,8.791 218.367,7.791 C218.367,6.735 216.9,6.557 215.461,6.173 C214.009,5.79 212.543,5.228 212.543,3.392 C212.543,1.392 214.434,0.432 216.202,0.432 C218.243,0.432 220.121,1.323 220.121,3.584 L218.038,3.584 C217.969,2.405 217.133,2.104 216.106,2.104 C215.42,2.104 214.625,2.392 214.625,3.214 C214.625,3.967 215.091,4.063 217.544,4.694 C218.257,4.872 220.45,5.324 220.45,7.544 C220.45,9.339 219.038,10.682 216.379,10.682 C214.214,10.682 212.187,9.613 212.214,7.201 L214.297,7.201" id="Fill-16" fill="#FFFFFE" fill-rule="nonzero"></path>
            <path d="M227.722,7.366 C227.722,8.626 227.379,10.682 224.461,10.682 C222.831,10.682 221.241,9.791 221.241,7.653 L221.241,6.804 L223.187,6.804 L223.187,7.242 C223.187,8.188 223.419,8.873 224.434,8.873 C225.571,8.873 225.571,7.955 225.571,7.27 L225.571,0.665 L227.722,0.665 L227.722,7.366" id="Fill-17" fill="#FFFFFE" fill-rule="nonzero"></path>
            <path d="M237.833,6.749 C237.833,9.394 236.272,10.682 233.655,10.682 C231.024,10.682 229.489,9.407 229.489,6.749 L229.489,0.665 L231.64,0.665 L231.64,6.749 C231.64,7.818 231.915,8.873 233.655,8.873 C235.189,8.873 235.682,8.202 235.682,6.749 L235.682,0.665 L237.833,0.665 L237.833,6.749" id="Fill-18" fill="#FFFFFE" fill-rule="nonzero"></path>
            <polyline id="Fill-19" fill="#FFFFFE" fill-rule="nonzero" points="239.599 0.665 241.737 0.665 245.82 7.229 245.847 7.229 245.847 0.665 247.862 0.665 247.862 10.449 245.71 10.449 241.641 3.899 241.614 3.899 241.614 10.449 239.599 10.449 239.599 0.665"></polyline>
            <polygon id="Fill-20" fill="#FFFFFE" fill-rule="nonzero" points="249.915 10.449 252.066 10.449 252.066 0.665 249.915 0.665"></polygon>
            <path d="M258.505,8.873 C260.438,8.873 261.164,7.229 261.164,5.598 C261.164,3.885 260.438,2.241 258.505,2.241 C256.574,2.241 255.847,3.885 255.847,5.598 C255.847,7.229 256.574,8.873 258.505,8.873 Z M258.505,0.432 C261.534,0.432 263.315,2.693 263.315,5.598 C263.315,8.421 261.534,10.682 258.505,10.682 C255.477,10.682 253.696,8.421 253.696,5.598 C253.696,2.693 255.477,0.432 258.505,0.432 L258.505,0.432 Z" id="Fill-21" fill="#FFFFFE" fill-rule="nonzero"></path>
            <path d="M266.847,5.091 L269.204,5.091 C270.164,5.091 270.684,4.68 270.684,3.693 C270.684,2.748 270.164,2.337 269.204,2.337 L266.847,2.337 L266.847,5.091 Z M264.696,0.665 L269.971,0.665 C271.725,0.665 272.835,1.885 272.835,3.365 C272.835,4.516 272.37,5.379 271.287,5.817 L271.287,5.845 C272.342,6.119 272.643,7.146 272.711,8.133 C272.753,8.75 272.739,9.901 273.123,10.449 L270.971,10.449 C270.711,9.832 270.739,8.887 270.629,8.105 C270.478,7.078 270.081,6.626 268.999,6.626 L266.847,6.626 L266.847,10.449 L264.696,10.449 L264.696,0.665 L264.696,0.665 Z" id="Fill-22" fill="#FFFFFE" fill-rule="nonzero"></path>
            <polyline id="Fill-23" fill="#FFFFFE" fill-rule="nonzero" points="274.505 0.665 281.823 0.665 281.823 2.474 276.657 2.474 276.657 4.57 281.398 4.57 281.398 6.242 276.657 6.242 276.657 8.64 281.932 8.64 281.932 10.449 274.505 10.449 274.505 0.665"></polyline>
            <polyline id="Fill-24" fill="#FFFFFE" fill-rule="nonzero" points="283.301 0.665 285.439 0.665 289.522 7.229 289.549 7.229 289.549 0.665 291.564 0.665 291.564 10.449 289.413 10.449 285.343 3.899 285.316 3.899 285.316 10.449 283.301 10.449 283.301 0.665"></polyline>
            <path d="M124.126,25.08 L126.044,25.08 C127.291,25.08 128.483,24.313 128.483,22.147 C128.483,20.174 127.798,18.914 125.661,18.914 L124.126,18.914 L124.126,25.08 Z M121.975,17.105 L126.195,17.105 C128.73,17.105 130.635,18.695 130.635,21.942 C130.635,24.778 129.183,26.889 126.195,26.889 L121.975,26.889 L121.975,17.105 L121.975,17.105 Z" id="Fill-25" fill="#FFFFFE" fill-rule="nonzero"></path>
            <polyline id="Fill-26" fill="#FFFFFE" fill-rule="nonzero" points="132.249 17.105 139.566 17.105 139.566 18.914 134.4 18.914 134.4 21.01 139.142 21.01 139.142 22.682 134.4 22.682 134.4 25.08 139.676 25.08 139.676 26.889 132.249 26.889 132.249 17.105"></polyline>
            <path d="M149.554,23.189 C149.554,25.834 147.993,27.122 145.375,27.122 C142.745,27.122 141.21,25.847 141.21,23.189 L141.21,17.105 L143.361,17.105 L143.361,23.189 C143.361,24.258 143.635,25.313 145.375,25.313 C146.91,25.313 147.403,24.642 147.403,23.189 L147.403,17.105 L149.554,17.105 L149.554,23.189" id="Fill-27" fill="#FFFFFE" fill-rule="nonzero"></path>
            <polyline id="Fill-28" fill="#FFFFFE" fill-rule="nonzero" points="153.69 18.914 150.757 18.914 150.757 17.105 158.774 17.105 158.774 18.914 155.841 18.914 155.841 26.889 153.69 26.889 153.69 18.914"></polyline>
            <path d="M161.485,23.641 C161.485,24.943 162.499,25.45 163.649,25.45 C164.403,25.45 165.554,25.231 165.554,24.231 C165.554,23.175 164.087,22.997 162.649,22.614 C161.197,22.23 159.731,21.668 159.731,19.832 C159.731,17.832 161.622,16.872 163.389,16.872 C165.43,16.872 167.308,17.763 167.308,20.024 L165.225,20.024 C165.157,18.845 164.321,18.544 163.293,18.544 C162.608,18.544 161.813,18.832 161.813,19.654 C161.813,20.407 162.279,20.503 164.732,21.134 C165.445,21.312 167.637,21.764 167.637,23.984 C167.637,25.779 166.225,27.122 163.567,27.122 C161.402,27.122 159.375,26.053 159.402,23.641 L161.485,23.641" id="Fill-29" fill="#FFFFFE" fill-rule="nonzero"></path>
            <path d="M175.555,20.394 C175.418,19.421 174.487,18.681 173.417,18.681 C171.486,18.681 170.759,20.325 170.759,22.038 C170.759,23.669 171.486,25.313 173.417,25.313 C174.733,25.313 175.473,24.409 175.637,23.121 L177.72,23.121 C177.5,25.56 175.816,27.122 173.417,27.122 C170.389,27.122 168.608,24.861 168.608,22.038 C168.608,19.133 170.389,16.872 173.417,16.872 C175.569,16.872 177.377,18.133 177.638,20.394 L175.555,20.394" id="Fill-30" fill="#FFFFFE" fill-rule="nonzero"></path>
            <polyline id="Fill-31" fill="#FFFFFE" fill-rule="nonzero" points="179.308 17.105 181.459 17.105 181.459 20.86 185.419 20.86 185.419 17.105 187.571 17.105 187.571 26.889 185.419 26.889 185.419 22.669 181.459 22.669 181.459 26.889 179.308 26.889 179.308 17.105"></polyline>
            <polyline id="Fill-32" fill="#FFFFFE" fill-rule="nonzero" points="189.583 17.105 191.734 17.105 191.734 25.08 196.502 25.08 196.502 26.889 189.583 26.889 189.583 17.105"></polyline>
            <path d="M200.296,23.107 L202.832,23.107 L201.598,19.517 L201.571,19.517 L200.296,23.107 Z M200.501,17.105 L202.708,17.105 L206.367,26.889 L204.133,26.889 L203.393,24.71 L199.735,24.71 L198.967,26.889 L196.789,26.889 L200.501,17.105 L200.501,17.105 Z" id="Fill-33" fill="#FFFFFE" fill-rule="nonzero"></path>
            <polyline id="Fill-34" fill="#FFFFFE" fill-rule="nonzero" points="207.337 17.105 209.475 17.105 213.558 23.669 213.585 23.669 213.585 17.105 215.6 17.105 215.6 26.889 213.449 26.889 209.379 20.339 209.352 20.339 209.352 26.889 207.337 26.889 207.337 17.105"></polyline>
            <path d="M219.764,25.08 L221.682,25.08 C222.929,25.08 224.122,24.313 224.122,22.147 C224.122,20.174 223.436,18.914 221.299,18.914 L219.764,18.914 L219.764,25.08 Z M217.613,17.105 L221.833,17.105 C224.369,17.105 226.273,18.695 226.273,21.942 C226.273,24.778 224.821,26.889 221.833,26.889 L217.613,26.889 L217.613,17.105 L217.613,17.105 Z" id="Fill-35" fill="#FFFFFE" fill-rule="nonzero"></path>
        </g>
    </g>
</svg>